<svg id="Capa_1" enable-background="new 0 0 512 512" height="512" viewBox="0 0 512 512" width="512" xmlns="http://www.w3.org/2000/svg"><g><g><path d="m185.29 296.912v48.488h141.422v-48.488c0-17.853-14.472-32.325-32.325-32.325h-76.772c-17.852 0-32.325 14.473-32.325 32.325z" fill="#6c7fd8"/><path d="m294.387 264.587h-28.284c17.853 0 32.325 14.472 32.325 32.325v48.488h28.284v-48.488c0-17.852-14.472-32.325-32.325-32.325z" fill="#4f66d0"/><circle cx="256.001" cy="216.1" fill="#fed2a4" r="48.488"/><path d="m278.797 173.303c3.628 6.796 5.69 14.554 5.69 22.796 0 26.779-21.709 48.488-48.488 48.488-8.242 0-16-2.063-22.796-5.69 8.159 15.286 24.26 25.692 42.797 25.692 26.779 0 48.488-21.709 48.488-48.488.001-18.538-10.405-34.639-25.691-42.798z" fill="#ffbd86"/></g><path d="m301.241 119.125h-90.481c-5.699 0-10.318-4.62-10.318-10.318v-90.482c0-5.698 4.62-10.318 10.318-10.318h90.481c5.698 0 10.318 4.62 10.318 10.318v90.481c0 5.699-4.619 10.319-10.318 10.319z" fill="#9be69d"/><path d="m301.241 8.007h-6.755c-3.983 20.495-15.858 42.612-34.655 61.409-18.182 18.182-39.468 29.876-59.39 34.227v5.163c0 5.698 4.62 10.318 10.318 10.318h90.481c5.699 0 10.318-4.62 10.318-10.318v-90.481c.001-5.698-4.618-10.318-10.317-10.318z" fill="#6fd7a3"/><circle cx="448.941" cy="256.506" fill="#bd80e1" r="55.559"/><path d="m488.864 217.888c-6.096 13.975-15.518 27.936-28.011 40.428-16.872 16.872-36.417 28.153-55.065 33.172 10.186 12.551 25.73 20.577 43.154 20.577 30.684 0 55.559-24.874 55.559-55.559-.001-15.01-5.964-28.62-15.637-38.618z" fill="#af66da"/><path d="m107.254 312.065h-88.356c-8.46 0-13.962-8.903-10.179-16.47l44.178-88.357c4.194-8.388 16.164-8.388 20.358 0l44.178 88.357c3.783 7.567-1.719 16.47-10.179 16.47z" fill="#ffe177"/><path d="m117.433 295.595-24.247-48.495c-6.106 13.126-15.144 26.161-26.883 37.901-11.86 11.86-25.043 20.956-38.305 27.064h79.257c8.459 0 13.961-8.903 10.178-16.47z" fill="#ffd15b"/><path d="m311.56 465.024v-45.297c0-5.834-3.112-11.225-8.165-14.142l-39.229-22.649c-5.053-2.917-11.277-2.917-16.33 0l-39.229 22.649c-5.053 2.917-8.165 8.308-8.165 14.142v45.297c0 5.834 3.112 11.225 8.165 14.142l39.229 22.649c5.053 2.917 11.277 2.917 16.33 0l39.229-22.649c5.052-2.917 8.165-8.308 8.165-14.142z" fill="#fe93d3"/><path d="m303.395 405.584-14.622-8.442c-4.808 19.093-16.25 39.233-33.572 56.555-12.789 12.789-27.115 22.377-41.422 28.455l34.057 19.663c5.053 2.917 11.277 2.917 16.33 0l39.229-22.649c5.053-2.917 8.165-8.308 8.165-14.142v-45.297c0-5.835-3.113-11.226-8.165-14.143z" fill="#fe73c5"/><g><path d="m294.387 257.087h-.301c11.002-10.23 17.903-24.815 17.903-40.987 0-30.872-25.116-55.988-55.988-55.988-30.871 0-55.988 25.116-55.988 55.988 0 16.172 6.901 30.757 17.903 40.987h-.302c-21.959 0-39.825 17.865-39.825 39.825v48.488c0 4.143 3.358 7.5 7.5 7.5h141.422c4.143 0 7.5-3.357 7.5-7.5v-48.488c.001-21.96-17.864-39.825-39.824-39.825zm-79.373-40.987c0-22.6 18.387-40.988 40.988-40.988s40.988 18.388 40.988 40.988-18.388 40.987-40.988 40.987-40.988-18.387-40.988-40.987zm104.198 121.8h-126.422v-40.988c0-13.688 11.137-24.825 24.825-24.825h76.772c13.688 0 24.825 11.137 24.825 24.825z"/><path d="m210.761 126.622h90.48c9.825 0 17.819-7.994 17.819-17.82v-30.36c0-4.143-3.357-7.5-7.5-7.5s-7.5 3.357-7.5 7.5v30.359c0 1.555-1.265 2.82-2.819 2.82h-90.48c-1.555 0-2.82-1.266-2.82-2.82v-90.479c0-1.55 1.265-2.811 2.82-2.811h90.48c1.555 0 2.819 1.261 2.819 2.811v25.12c0 4.143 3.357 7.5 7.5 7.5s7.5-3.357 7.5-7.5v-25.12c0-9.82-7.994-17.81-17.819-17.81h-90.48c-9.826 0-17.82 7.99-17.82 17.81v90.479c.001 9.827 7.995 17.821 17.82 17.821z"/><path d="m494.955 213.384c-2.832-3.022-7.577-3.18-10.602-.348-3.023 2.832-3.179 7.578-.348 10.602 8.38 8.946 12.994 20.621 12.994 32.873 0 26.495-21.559 48.05-48.059 48.05-26.501 0-48.06-21.555-48.06-48.05 0-26.5 21.559-48.059 48.06-48.059 2.945 0 5.896.271 8.771.804 4.075.762 7.987-1.933 8.742-6.006.756-4.073-1.934-7.986-6.006-8.742-3.775-.7-7.647-1.056-11.508-1.056-34.771 0-63.06 28.288-63.06 63.059 0 34.765 28.289 63.049 63.06 63.049s63.061-28.284 63.061-63.049c0-16.074-6.054-31.39-17.045-43.127z"/><path d="m123.314 310.611c3.465-5.607 3.774-12.475.827-18.371l-44.178-88.355c-3.219-6.438-9.689-10.438-16.888-10.438-7.197 0-13.668 4-16.887 10.437l-44.177 88.356c-2.948 5.896-2.639 12.764.826 18.371 3.465 5.606 9.469 8.954 16.06 8.954h88.356c6.592 0 12.596-3.348 16.061-8.954zm-107.717-7.886c-.342-.554-1.043-2.029-.17-3.776l44.178-88.357c.968-1.936 2.75-2.145 3.47-2.145.721 0 2.503.21 3.471 2.146l44.178 88.355c.874 1.747.172 3.224-.17 3.776-.342.554-1.348 1.841-3.301 1.841h-88.356c-1.952 0-2.958-1.287-3.3-1.84z"/><path d="m307.141 399.085-39.22-22.64c-7.353-4.245-16.487-4.245-23.839 0l-39.219 22.639c-7.353 4.243-11.921 12.154-11.921 20.646v5.14c0 4.143 3.358 7.5 7.5 7.5s7.5-3.357 7.5-7.5v-5.14c0-3.148 1.693-6.082 4.419-7.655l39.22-22.64c2.727-1.574 6.115-1.573 8.84 0l39.221 22.641c2.725 1.572 4.418 4.506 4.418 7.654v45.289c0 3.148-1.693 6.082-4.42 7.655l-39.22 22.64c-2.726 1.575-6.113 1.575-8.84 0l-39.221-22.641c-2.726-1.572-4.418-4.506-4.418-7.654v-5.149c0-4.143-3.358-7.5-7.5-7.5s-7.5 3.357-7.5 7.5v5.149c0 8.492 4.568 16.403 11.92 20.645l39.22 22.64c3.676 2.122 7.798 3.184 11.919 3.184 4.122 0 8.243-1.062 11.919-3.184l39.219-22.639c7.353-4.243 11.922-12.154 11.922-20.646v-45.289c.001-8.492-4.568-16.403-11.919-20.645z"/><path d="m343.885 71.066h84.854c7.005 0 12.703 5.698 12.703 12.703v66.746l-11.44-11.441c-2.93-2.928-7.678-2.928-10.607 0-2.929 2.93-2.929 7.678 0 10.607l24.244 24.244c1.407 1.406 3.314 2.196 5.304 2.196 1.989 0 3.896-.79 5.304-2.197l24.243-24.244c2.929-2.929 2.929-7.678-.001-10.606-2.928-2.928-7.677-2.929-10.606.001l-11.439 11.44v-66.746c0-15.275-12.428-27.703-27.703-27.703h-84.854c-4.143 0-7.5 3.357-7.5 7.5s3.355 7.5 7.498 7.5z"/><path d="m149.182 34.014c-2.929-2.928-7.678-2.929-10.606.001-2.929 2.929-2.929 7.678 0 10.606l11.44 11.439h-66.747c-15.275 0-27.703 12.428-27.703 27.703v84.854c0 4.143 3.358 7.5 7.5 7.5s7.5-3.357 7.5-7.5v-84.853c0-7.005 5.699-12.703 12.703-12.703h66.747l-11.44 11.44c-2.929 2.93-2.929 7.678 0 10.607 1.464 1.464 3.384 2.196 5.303 2.196s3.839-.732 5.303-2.196l24.244-24.244c1.407-1.407 2.197-3.314 2.197-5.304s-.79-3.896-2.197-5.304z"/><path d="m168.117 441.936h-84.853c-7.004 0-12.703-5.698-12.703-12.703v-66.746l11.44 11.441c1.464 1.464 3.384 2.196 5.303 2.196s3.839-.732 5.303-2.196c2.929-2.93 2.929-7.678 0-10.607l-24.244-24.244c-1.406-1.406-3.314-2.196-5.303-2.196s-3.897.79-5.303 2.196l-24.243 24.243c-2.929 2.93-2.929 7.678 0 10.607 2.929 2.928 7.678 2.928 10.606 0l11.441-11.441v66.746c0 15.275 12.428 27.703 27.703 27.703h84.853c4.142 0 7.5-3.357 7.5-7.5s-3.358-7.499-7.5-7.499z"/><path d="m448.936 336.884c-4.143 0-7.5 3.357-7.5 7.5v84.854c0 7.005-5.698 12.703-12.703 12.703h-66.746l11.441-11.44c2.929-2.93 2.929-7.678 0-10.607-2.93-2.928-7.678-2.928-10.607 0l-24.244 24.244c-1.406 1.407-2.196 3.314-2.196 5.304s.79 3.896 2.197 5.304l24.244 24.243c1.464 1.464 3.384 2.196 5.303 2.196s3.839-.732 5.304-2.197c2.929-2.929 2.929-7.678-.001-10.606l-11.44-11.439h66.746c15.275 0 27.703-12.428 27.703-27.703v-84.854c-.001-4.144-3.359-7.502-7.501-7.502z"/></g></g></svg>