<svg xmlns="http://www.w3.org/2000/svg" viewBox="0 0 42.26 42.26"><defs><style>.cls-1{fill:#0d113a;}.cls-2{fill:#edf3f8;}</style></defs><g id="Layer_2" data-name="Layer 2"><g id="Layer_1-2" data-name="Layer 1"><rect class="cls-1" width="42.26" height="42.26" rx="3.5"/><path class="cls-2" d="M33.79,26.9a.64.64,0,0,1-.67.36c-.87,0-1.75,0-2.62,0-.5,0-.6-.08-.74-.56,0-.07-.05-.14-.09-.25-.25.17-.49.32-.72.49,0,0,0,.11,0,.16a1.66,1.66,0,0,1-1.51,1.79.35.35,0,0,0-.3.19,1.85,1.85,0,0,1-1.79.89.28.28,0,0,0-.3.16A1.77,1.77,0,0,1,23,31a.25.25,0,0,0-.15,0A2.3,2.3,0,0,1,20.8,31a5.25,5.25,0,0,1-1.42-.85c-1.23-1-2.47-1.9-3.67-2.89-.61-.5-1.13-1.09-1.69-1.65l-.09-.07s0,0,0,0c-.26.64-.26.64-1,.64H10.47c-.47,0-.64-.16-.64-.62V16.9c0-.46.2-.65.65-.62a19,19,0,0,1,4.24.66,4.86,4.86,0,0,1,.74.32.61.61,0,0,1,.34.72,2.16,2.16,0,0,0,0,.29h3.77a.74.74,0,0,0,.38-.12,3.49,3.49,0,0,1,2.5-.8,6.07,6.07,0,0,1,1.67.5l2.5,1,.2.07a1.19,1.19,0,0,1,.13-.45.85.85,0,0,1,.4-.26,14,14,0,0,1,4.14-.88c.55-.05,1.11-.05,1.66-.09a.64.64,0,0,1,.67.36ZM15.66,19.28c-.45,1.69-.9,3.34-1.34,5a.36.36,0,0,0,0,.29,23.14,23.14,0,0,0,1.78,1.79c1.43,1.17,2.9,2.29,4.37,3.41a3.9,3.9,0,0,0,1,.45,2.2,2.2,0,0,0,.5.05,1.5,1.5,0,0,0-.14-.16l-1.41-1.43c-.18-.19-.37-.38-.54-.58a.48.48,0,0,1,0-.69.49.49,0,0,1,.69,0c.07.06.13.13.2.2l2.27,2.25a.52.52,0,0,0,.65.08,1,1,0,0,0,.48-.54l-2-1.91a5.22,5.22,0,0,1-.39-.43.48.48,0,0,1,0-.66.5.5,0,0,1,.68,0c.08.07.14.15.21.22L25,28.76a.79.79,0,0,0,1.13,0c.14-.13.18-.23,0-.39-.89-.89-1.77-1.78-2.65-2.68a.5.5,0,0,1,0-.75.49.49,0,0,1,.74.06c.25.24.48.49.72.73l2,2a.44.44,0,0,0,.48.14.62.62,0,0,0,.4-.89,1.86,1.86,0,0,0-.36-.52,15.25,15.25,0,0,0-1.22-1.19c-1.31-1.12-2.65-2.23-4-3.33a.28.28,0,0,0-.24,0c-.24.07-.47.19-.72.26a.71.71,0,0,0-.4.25,2.39,2.39,0,0,1-2.61.85,1.29,1.29,0,0,1-1-1.63A4,4,0,0,1,18,20c.18-.25.38-.49.58-.75Zm12.8,6.77.79-.53a.26.26,0,0,0,.05-.21q-.89-2.44-1.78-4.89a.37.37,0,0,0-.18-.19L23.29,18.6a2.51,2.51,0,0,0-2.76.35,13.65,13.65,0,0,0-1.37,1.27,3.34,3.34,0,0,0-.88,1.59c-.07.32,0,.44.31.51a1.84,1.84,0,0,0,.57.05,1.64,1.64,0,0,0,1.15-.76,1,1,0,0,1,.36-.31c.45-.17.92-.3,1.37-.47a.62.62,0,0,1,.68.14c.39.36.78.71,1.19,1.05A39.49,39.49,0,0,1,28.46,26.05Zm-.43-7c.06.16.13.3.19.44.89,2.14,1.66,4.33,2.37,6.54a.28.28,0,0,0,.32.23h1.86V18.3A15.4,15.4,0,0,0,28,19.05Zm-17.19,6.2H13c.15-.49.31-1,.45-1.46a45.84,45.84,0,0,0,1.36-5.55c0-.19,0-.27-.19-.31-.66-.14-1.32-.31-2-.42s-1.15-.14-1.75-.21Z"/></g></g></svg>