<svg xmlns="http://www.w3.org/2000/svg" viewBox="0 0 42.26 42.26"><defs><style>.cls-1{fill:#0d113a;}.cls-2{fill:#edf3f8;}</style></defs><g id="Layer_2" data-name="Layer 2"><g id="Layer_1-2" data-name="Layer 1"><rect class="cls-1" width="42.26" height="42.26" rx="3.5"/><path class="cls-2" d="M26.56,25.38h-.85v7a1.28,1.28,0,0,1-1.42,1.43h-4.5c0,.51,0,1,0,1.5A1,1,0,0,1,18,36c-.55-.64-1.09-1.29-1.62-1.94a.47.47,0,0,0-.4-.19h-4.1a1.28,1.28,0,0,1-1.38-1.39V24.23a1.28,1.28,0,0,1,1.4-1.39h3.34c-.25-.3-.45-.56-.68-.8,0-.05-.16-.05-.24-.05H11a1.27,1.27,0,0,1-1.38-1.38V11.53A1.28,1.28,0,0,1,11,10.15H21.82a1.27,1.27,0,0,1,1.35,1.36c0,.65,0,1.3,0,2,0,0,0,0,0,.08h11.2A1.29,1.29,0,0,1,35.86,15v8.93a1.3,1.3,0,0,1-1.47,1.45h-4a.46.46,0,0,0-.42.19c-.54.66-1.08,1.3-1.63,2a1,1,0,0,1-1.79-.62V25.38ZM19,33h5.29c.51,0,.63-.12.63-.62v-7H21.92a1.26,1.26,0,0,1-1.28-1.27v-.42c-.8,0-1.56,0-2.32,0a.27.27,0,0,0-.3.2,1,1,0,0,1-1.66.31l-.27-.32a.44.44,0,0,0-.4-.19c-1.25,0-2.51,0-3.77,0-.45,0-.58.13-.58.59V32.4c0,.45.13.58.58.58h4.46a.43.43,0,0,1,.38.18c.59.72,1.19,1.44,1.79,2.15a2.08,2.08,0,0,0,.29.19,1.39,1.39,0,0,0,.1-.33C19,34.45,19,33.73,19,33ZM17.26,21.15h4.5c.43,0,.57-.13.57-.56v-9c0-.43-.14-.57-.57-.57H11.07c-.44,0-.58.13-.58.56v9c0,.42.15.55.56.55h3.59a.56.56,0,0,1,.47.22c.59.73,1.2,1.45,1.8,2.18.09.11.19.21.32.05s0-.15,0-.23Zm4.22.84v2c0,.44.14.58.58.58H27.4c0,.76,0,1.49,0,2.22a.79.79,0,0,0,.11.29,1,1,0,0,0,.25-.15c.6-.71,1.2-1.43,1.79-2.15a.54.54,0,0,1,.47-.22h4.38c.48,0,.6-.13.6-.62V15c0-.49-.12-.61-.61-.61H23.17v.35c0,2,0,4,0,5.94A1.27,1.27,0,0,1,21.86,22Zm-.85,0H18.12v.81h2.51Z"/><path class="cls-2" d="M16.31,28.54l.53-.34a1.75,1.75,0,0,1-.38-1.55,1.7,1.7,0,0,1,.62-.93,1.68,1.68,0,0,1,2.14.08,1.74,1.74,0,0,1,.16,2.4l.51.34c-.19-1.1.1-1.8.88-2.16a1.68,1.68,0,0,1,2,.4,1.74,1.74,0,0,1,0,2.3,2.82,2.82,0,0,1,1.27,3h-.83c0-.29,0-.58,0-.88A1.69,1.69,0,0,0,21,29.66c-.1,0-.19.08-.25.1l.29,2.32-.85.11c0-.51-.12-1-.16-1.5a2,2,0,0,0-1.51-1.88,2,2,0,0,0-2.4,1.84c0,.51-.11,1-.17,1.53l-.84-.1.28-2.32a1.58,1.58,0,0,0-1.23-.07A1.68,1.68,0,0,0,13,31.26v.86h-.82a2.82,2.82,0,0,1,1.28-3A1.77,1.77,0,0,1,13,27.69a1.66,1.66,0,0,1,.48-1,1.7,1.7,0,0,1,2-.3A1.76,1.76,0,0,1,16.31,28.54ZM19,27.06a.86.86,0,0,0-.85-.84.84.84,0,0,0-.84.83.85.85,0,0,0,.85.86A.86.86,0,0,0,19,27.06Zm-4.22,1.69a.84.84,0,0,0,.83-.85.84.84,0,1,0-1.68,0A.84.84,0,0,0,14.73,28.75Zm6.77,0a.85.85,0,0,0,.83-.85.85.85,0,1,0-1.69,0A.85.85,0,0,0,21.5,28.75Z"/><path class="cls-2" d="M16.39,20.43c-1.14-1-2.28-2-3.4-3.06a2.46,2.46,0,0,1-.51-.73,2.71,2.71,0,0,1,1.6-3.86,2.39,2.39,0,0,1,2.11.4l.15.11a7.07,7.07,0,0,1,1.26-.53,2.49,2.49,0,0,1,3,2,2.78,2.78,0,0,1-.84,2.67c-1.06,1-2.16,1.94-3.25,2.9Zm0-1.11c.95-.86,1.9-1.68,2.81-2.54a1.85,1.85,0,0,0,.55-1.62,1.65,1.65,0,0,0-1.11-1.5,1.59,1.59,0,0,0-1.79.43l-.47.51c-.22-.24-.39-.44-.58-.62a1.6,1.6,0,0,0-2.28.06,2,2,0,0,0,.14,2.84C14.57,17.7,15.49,18.49,16.42,19.32Z"/><path class="cls-2" d="M27.33,23.19a1,1,0,0,1-1.07.5c-.44,0-.89,0-1.34,0a.84.84,0,0,1-.9-.89V18.64a.85.85,0,0,1,.88-.88c.51,0,1,0,1.51,0a5.34,5.34,0,0,1,.7.1,3.35,3.35,0,0,0,1-1.65,1.29,1.29,0,0,1,1.11-1A1.66,1.66,0,0,1,31,17.08c0,.22-.07.44-.1.68h.75a1.69,1.69,0,0,1,1.7,1.7c0,.84,0,1.69,0,2.53a1.69,1.69,0,0,1-1.68,1.69c-.84,0-1.69,0-2.53-.06A13.51,13.51,0,0,1,27.33,23.19Zm2.53-4.58c.1-.55.18-1.07.27-1.58a.83.83,0,0,0-.65-1,.44.44,0,0,0-.56.32,4.74,4.74,0,0,1-1.41,2.28.37.37,0,0,0-.1.25q0,1.55,0,3.09a.31.31,0,0,0,.14.23,3.49,3.49,0,0,0,1.59.53c.8,0,1.6,0,2.4,0a.84.84,0,0,0,.93-.93c0-.77,0-1.54,0-2.32a.85.85,0,0,0-1-1Zm-5,0v4.2h1.66v-4.2Z"/></g></g></svg>