<svg xmlns="http://www.w3.org/2000/svg" viewBox="0 0 41.68 41.68"><defs><style>.cls-1{fill:#0d113a;}.cls-2{fill:#edf3f8;}</style></defs><g id="Layer_2" data-name="Layer 2"><g id="Layer_1-2" data-name="Layer 1"><rect class="cls-1" width="41.68" height="41.68" rx="3.45"/><path class="cls-2" d="M32.68,21.08a.69.69,0,0,0-.11.13c-.47.7-.94,1.4-1.39,2.11a.79.79,0,0,0-.12.42c0,.83.08,1.65.14,2.48a.63.63,0,0,1-.4.68L28.62,28a.76.76,0,0,0-.35.36c-.36.73-.74,1.46-1.1,2.2a.61.61,0,0,1-.65.37l-2.6-.15a.5.5,0,0,0-.28.1c-.71.46-1.42.92-2.11,1.39a.62.62,0,0,1-.79,0c-.67-.46-1.36-.89-2-1.35a.69.69,0,0,0-.5-.13c-.84.06-1.67.09-2.51.14a.57.57,0,0,1-.59-.36c-.38-.76-.76-1.52-1.15-2.27A.65.65,0,0,0,13.7,28c-.75-.39-1.5-.77-2.26-1.14a.61.61,0,0,1-.37-.65c0-.85.1-1.7.13-2.55a.61.61,0,0,0-.09-.35c-.46-.71-.92-1.42-1.39-2.12a.57.57,0,0,1,0-.74c.46-.7.92-1.39,1.38-2.1a.77.77,0,0,0,.11-.39c0-.82-.08-1.64-.14-2.46a.67.67,0,0,1,.44-.75c.74-.35,1.46-.73,2.19-1.11a.57.57,0,0,0,.26-.25c.39-.75.77-1.5,1.14-2.26a.62.62,0,0,1,.67-.38c.86.06,1.72.1,2.57.14a.49.49,0,0,0,.29-.08l1.78-1.17.6-.39h.27l2.37,1.56a.51.51,0,0,0,.25.09l2.59-.14c.38,0,.52,0,.69.38l1.13,2.23a.74.74,0,0,0,.29.29l2.28,1.15a.57.57,0,0,1,.34.56c0,.86-.11,1.71-.15,2.57a.73.73,0,0,0,.1.39c.5.78,1,1.54,1.51,2.31ZM25,29.86c.39,0,.79,0,1.18.08a.35.35,0,0,0,.39-.23c.33-.69.68-1.38,1-2.05a1,1,0,0,1,.39-.39c.69-.36,1.39-.71,2.09-1.06a.29.29,0,0,0,.19-.32c-.05-.79-.09-1.57-.14-2.35a.9.9,0,0,1,.16-.57c.44-.65.86-1.31,1.3-2a.23.23,0,0,0,0-.31c-.44-.66-.88-1.32-1.3-2a1.08,1.08,0,0,1-.15-.53c0-.79.08-1.58.13-2.37a.29.29,0,0,0-.19-.33c-.69-.33-1.37-.69-2.05-1a.94.94,0,0,1-.46-.44c-.34-.7-.7-1.39-1-2.08a.25.25,0,0,0-.29-.17l-2.37.13a.89.89,0,0,1-.57-.15c-.64-.44-1.3-.86-1.94-1.29a.27.27,0,0,0-.36,0c-.64.44-1.28.87-1.94,1.28a1,1,0,0,1-.56.16c-.76,0-1.52-.07-2.28-.12a.36.36,0,0,0-.43.24c-.31.66-.66,1.3-1,2a1,1,0,0,1-.51.51l-2,1a.3.3,0,0,0-.2.36c0,.77.1,1.55.12,2.32a1,1,0,0,1-.15.55c-.41.66-.85,1.31-1.29,2a.29.29,0,0,0,0,.36c.41.6.79,1.21,1.2,1.8a1.35,1.35,0,0,1,.24,1c-.06.72-.08,1.43-.12,2.15a.23.23,0,0,0,.16.27l2.06,1a.94.94,0,0,1,.48.48c.34.68.69,1.35,1,2a.3.3,0,0,0,.33.2c.77-.06,1.55-.09,2.32-.14A1,1,0,0,1,19,30c.64.44,1.3.86,1.94,1.29a.24.24,0,0,0,.32,0c.65-.44,1.31-.88,2-1.3a1.08,1.08,0,0,1,.52-.15C24.19,29.8,24.57,29.84,25,29.86Z"/><path class="cls-2" d="M13.93,20.84a7.21,7.21,0,1,1,7.2,7.21A7.22,7.22,0,0,1,13.93,20.84Zm13.45,0a6.24,6.24,0,1,0-6.25,6.23A6.25,6.25,0,0,0,27.38,20.86Z"/><path class="cls-2" d="M20.33,21.9l3.29-3.1a1,1,0,0,1,.38-.21.41.41,0,0,1,.47.23.44.44,0,0,1,0,.51,1.45,1.45,0,0,1-.17.18l-3.58,3.38c-.35.33-.59.33-.92,0-.59-.6-1.18-1.2-1.76-1.81a1.3,1.3,0,0,1-.19-.22.47.47,0,0,1,.65-.64,1.43,1.43,0,0,1,.23.2Z"/></g></g></svg>