<svg id="Capa_1" enable-background="new 0 0 512 512" height="512" viewBox="0 0 512 512" width="512" xmlns="http://www.w3.org/2000/svg"><g><g><g><path d="m248.842 189.14c.325 0 .642.03.955.073v-34.742c-.85.367-1.785.573-2.768.573h-25.459v34.169c.313-.043.63-.073.955-.073z" fill="#9b8e99"/></g><g><g><path d="m71.128 129.559-29.384 29.384c-5.626 5.626-8.787 13.257-8.787 21.213v36.409h28.227v-30.93c0-3.978 1.58-7.794 4.393-10.607l21.636-21.636c2.813-2.813 6.628-4.393 10.607-4.393h14.331v-28.226h-19.81c-7.956-.001-15.587 3.16-21.213 8.786z" fill="#685e68"/></g></g></g><g><g><path d="m256.842 216.565v-20.426c0-4.418-3.582-8-8-8h-26.317c-4.418 0-8 3.582-8 8v20.426z" fill="#685e68"/></g><g><path d="m242.683 188.139h-20.158c-4.418 0-8 3.582-8 8v20.426h20.158v-20.426c0-4.418 3.582-8 8-8z" fill="#554e56"/></g><g><path d="m247.029 113.727h-36.526v42.317h36.526c4.418 0 8-3.582 8-8v-26.317c0-4.418-3.582-8-8-8z" fill="#685e68"/></g><g><path d="m210.502 113.727h20.498v42.317h-20.498z" fill="#554e56"/></g><g><path d="m111.151 118.727v32.317c0 2.761 2.239 5 5 5h95.352v-42.317h-95.352c-2.762 0-5 2.238-5 5z" fill="#d7d0d6"/></g><g><path d="m136.648 151.044v-32.317c0-2.761 2.239-5 5-5h-25.498c-2.761 0-5 2.239-5 5v32.317c0 2.761 2.239 5 5 5h25.498c-2.761 0-5-2.239-5-5z" fill="#c9bfc8"/></g><g><g><path d="m353 241.292h59.672v84.289h-59.672z" fill="#9b8e99"/></g><g><path d="m346.589 230.593h-32.712v105.686h32.712c4.418 0 8-3.582 8-8v-89.686c0-4.418-3.582-8-8-8z" fill="#685e68"/></g><g><path d="m346.589 302.687h-32.712v33.593h32.712c4.418 0 8-3.582 8-8v-33.593c0 4.418-3.582 8-8 8z" fill="#554e56"/></g><g><path d="m491.97 215.565h-22.841c-1.458 0-2.899.319-4.222.935l-53.234 24.791v84.289l53.234 24.792c1.322.616 2.763.935 4.222.935h22.841c2.761 0 5-2.239 5-5v-125.742c0-2.761-2.239-5-5-5z" fill="#685e68"/></g><g><path d="m494.159 334c-1.459 0-2.9-.319-4.222-.935l-47.456-22.101c-3.525-1.641-5.778-5.177-5.778-9.065v-72.265l-25.031 11.657v84.289l53.235 24.792c1.322.616 2.763.935 4.222.935h22.841c2.761 0 5-2.239 5-5v-12.307z" fill="#554e56"/></g></g><path d="m278.353 386.004c0-5.523 4.477-10 10-10h26.524v-145.439c0-8.284-6.716-15-15-15h-269.847c-8.284 0-15 6.716-15 15v154.986c0 8.284 6.716 15 15 15h248.323z" fill="#aa9ea9"/><g><path d="m204.962 318.682h-154.337v81.869h157v-82.003c-.876.087-1.764.134-2.663.134z" fill="#685e68"/></g><g><g><path d="m50.625 318.682h32.375v81.869h-32.375z" fill="#554e56"/></g></g><g><g><path d="m232.661 215.565h-51.614v104.117h23.915c15.298 0 27.699-12.401 27.699-27.699z" fill="#d7d0d6"/></g><g><path d="m181.047 215.565h21.953v104.117h-21.953z" fill="#c9bfc8"/></g><g><path d="m182.161 215.565h-152.131c-8.284 0-15 6.716-15 15v89.117h167.131z" fill="#9b8e99"/></g><g><path d="m64 215.565h-33.97c-8.284 0-15 6.716-15 15v89.117h33.97v-89.117c0-8.284 6.716-15 15-15z" fill="#8b8089"/></g></g><g><g><path d="m484.97 176.768h-184.574c-6.627 0-12-5.373-12-12v-145.268c0-6.627 5.373-12 12-12h184.574c6.627 0 12 5.373 12 12v145.268c0 6.628-5.373 12-12 12z" fill="#01c0fa"/></g><g><path d="m329 164.768v-145.268c0-6.627 5.373-12 12-12h-40.604c-6.627 0-12 5.373-12 12v145.268c0 6.627 5.373 12 12 12h40.604c-6.627 0-12-5.372-12-12z" fill="#08a9f1"/></g><g><path d="m417.414 88.896-50.618-25.542c-2.412-1.217-5.261.536-5.261 3.238v51.085c0 2.702 2.849 4.456 5.261 3.238l50.618-25.542c2.657-1.342 2.657-5.136 0-6.477z" fill="#7a6d79"/></g><g><path d="m378.127 69.072-11.332-5.718c-2.412-1.217-5.261.536-5.261 3.238v51.085c0 2.702 2.849 4.456 5.261 3.238l11.332-5.718z" fill="#685e68"/></g></g><g><g><path d="m426.688 504.5h-138.335c-5.523 0-10-4.477-10-10v-108.496c0-5.523 4.477-10 10-10h138.334c5.523 0 10 4.477 10 10v108.496c.001 5.523-4.477 10-9.999 10z" fill="#01c0fa"/></g><g><path d="m312 494.5v-108.496c0-5.523 4.477-10 10-10h-33.647c-5.523 0-10 4.477-10 10v108.496c0 5.523 4.477 10 10 10h33.647c-5.523 0-10-4.477-10-10z" fill="#08a9f1"/></g><g><path d="m384.464 437.014-50.618-25.542c-2.413-1.217-5.261.536-5.261 3.238v51.085c0 2.702 2.849 4.456 5.261 3.238l50.618-25.542c2.657-1.342 2.657-5.136 0-6.477z" fill="#7a6d79"/></g><g><path d="m349 419.119-15.155-7.647c-2.412-1.218-5.261.536-5.261 3.238v51.085c0 2.702 2.849 4.456 5.261 3.238l15.155-7.648z" fill="#685e68"/></g></g></g><g><path d="m283 304h-21c-1.657 0-3-1.343-3-3v-58c0-1.657 1.343-3 3-3h21c1.657 0 3 1.343 3 3v58c0 1.657-1.343 3-3 3z" fill="#ffe177"/></g><g><path d="m136.375 362.5h-55c-4.142 0-7.5 3.357-7.5 7.5s3.358 7.5 7.5 7.5h55c4.142 0 7.5-3.357 7.5-7.5s-3.358-7.5-7.5-7.5z"/><path d="m176.875 362.5h-5c-4.142 0-7.5 3.357-7.5 7.5s3.358 7.5 7.5 7.5h5c4.142 0 7.5-3.357 7.5-7.5s-3.358-7.5-7.5-7.5z"/><path d="m176.875 338.5h-5c-4.142 0-7.5 3.357-7.5 7.5s3.358 7.5 7.5 7.5h5c4.142 0 7.5-3.357 7.5-7.5s-3.358-7.5-7.5-7.5z"/><path d="m81.375 353.5h5c4.142 0 7.5-3.357 7.5-7.5s-3.358-7.5-7.5-7.5h-5c-4.142 0-7.5 3.357-7.5 7.5s3.358 7.5 7.5 7.5z"/><path d="m106.375 353.5h5c4.142 0 7.5-3.357 7.5-7.5s-3.358-7.5-7.5-7.5h-5c-4.142 0-7.5 3.357-7.5 7.5s3.358 7.5 7.5 7.5z"/><path d="m136.375 338.5h-5c-4.142 0-7.5 3.357-7.5 7.5s3.358 7.5 7.5 7.5h5c4.142 0 7.5-3.357 7.5-7.5s-3.358-7.5-7.5-7.5z"/><path d="m89.667 286.167h-47c-4.142 0-7.5 3.357-7.5 7.5s3.358 7.5 7.5 7.5h47c4.142 0 7.5-3.357 7.5-7.5s-3.358-7.5-7.5-7.5z"/><path d="m484.97 0h-184.574c-10.752 0-19.5 8.748-19.5 19.5v145.269c0 10.752 8.748 19.5 19.5 19.5h184.574c10.752 0 19.5-8.748 19.5-19.5v-145.269c0-10.752-8.748-19.5-19.5-19.5zm4.5 164.769c0 2.481-2.019 4.5-4.5 4.5h-184.574c-2.481 0-4.5-2.019-4.5-4.5v-145.269c0-2.481 2.019-4.5 4.5-4.5h184.574c2.481 0 4.5 2.019 4.5 4.5z"/><path d="m426.907 92.136c0-4.224-2.342-8.031-6.112-9.936-.001 0-.002 0-.002-.001l-50.618-25.541c-3.474-1.754-7.528-1.584-10.845.457-3.316 2.04-5.296 5.583-5.296 9.477v51.085c0 3.893 1.979 7.435 5.294 9.476 1.795 1.104 3.807 1.662 5.826 1.662 1.71 0 3.426-.399 5.02-1.203l50.619-25.543c3.77-1.904 6.113-5.71 6.114-9.933zm-57.873 19.249v-38.501l38.149 19.25z"/><path d="m323.161 26.6h-6.045c-4.143 0-7.5 3.357-7.5 7.5s3.357 7.5 7.5 7.5h6.045c4.143 0 7.5-3.357 7.5-7.5s-3.357-7.5-7.5-7.5z"/><path d="m353.388 41.6h6.046c4.143 0 7.5-3.357 7.5-7.5s-3.357-7.5-7.5-7.5h-6.046c-4.143 0-7.5 3.357-7.5 7.5s3.357 7.5 7.5 7.5z"/><path d="m389.66 41.6h6.045c4.143 0 7.5-3.357 7.5-7.5s-3.357-7.5-7.5-7.5h-6.045c-4.143 0-7.5 3.357-7.5 7.5s3.358 7.5 7.5 7.5z"/><path d="m431.977 26.6h-6.045c-4.143 0-7.5 3.357-7.5 7.5s3.357 7.5 7.5 7.5h6.045c4.143 0 7.5-3.357 7.5-7.5s-3.358-7.5-7.5-7.5z"/><path d="m468.249 26.6h-6.046c-4.143 0-7.5 3.357-7.5 7.5s3.357 7.5 7.5 7.5h6.046c4.143 0 7.5-3.357 7.5-7.5s-3.357-7.5-7.5-7.5z"/><path d="m323.161 142.669h-6.045c-4.143 0-7.5 3.357-7.5 7.5s3.357 7.5 7.5 7.5h6.045c4.143 0 7.5-3.357 7.5-7.5s-3.357-7.5-7.5-7.5z"/><path d="m359.434 142.669h-6.046c-4.143 0-7.5 3.357-7.5 7.5s3.357 7.5 7.5 7.5h6.046c4.143 0 7.5-3.357 7.5-7.5s-3.358-7.5-7.5-7.5z"/><path d="m395.705 142.669h-6.045c-4.143 0-7.5 3.357-7.5 7.5s3.357 7.5 7.5 7.5h6.045c4.143 0 7.5-3.357 7.5-7.5s-3.357-7.5-7.5-7.5z"/><path d="m431.977 142.669h-6.045c-4.143 0-7.5 3.357-7.5 7.5s3.357 7.5 7.5 7.5h6.045c4.143 0 7.5-3.357 7.5-7.5s-3.358-7.5-7.5-7.5z"/><path d="m468.249 142.669h-6.046c-4.143 0-7.5 3.357-7.5 7.5s3.357 7.5 7.5 7.5h6.046c4.143 0 7.5-3.357 7.5-7.5s-3.357-7.5-7.5-7.5z"/><path d="m337.225 404.776c-3.477-1.755-7.531-1.583-10.846.457-3.315 2.041-5.295 5.583-5.295 9.477v51.085c0 3.893 1.979 7.436 5.294 9.476 1.796 1.104 3.807 1.662 5.826 1.661 1.71 0 3.427-.399 5.021-1.203l50.618-25.542c3.771-1.903 6.114-5.71 6.114-9.935s-2.343-8.031-6.114-9.935zm-1.141 54.726v-38.5l38.149 19.25z"/><path d="m283 232.5h-21c-5.79 0-10.5 4.71-10.5 10.5v58c0 5.79 4.71 10.5 10.5 10.5h21c5.79 0 10.5-4.71 10.5-10.5v-58c0-5.79-4.71-10.5-10.5-10.5zm-4.5 64h-12v-49h12z"/><path d="m459.414 248.437v70c0 4.143 3.357 7.5 7.5 7.5s7.5-3.357 7.5-7.5v-70c0-4.143-3.357-7.5-7.5-7.5s-7.5 3.357-7.5 7.5z"/><path d="m491.97 208.065h-22.842c-2.537 0-5.093.565-7.388 1.636l-51.729 24.09h-48.693c-2.027-6.202-7.859-10.698-14.729-10.698h-25.493c-3.088-8.743-11.432-15.027-21.219-15.027h-35.535v-11.926c0-5.428-2.81-10.205-7.045-12.974v-23.542c3.201-2.842 5.232-6.973 5.232-11.58v-26.317c0-8.547-6.954-15.5-15.5-15.5h-130.879c-4.936 0-9.199 2.882-11.23 7.046h-12.58c-10.018 0-19.435 3.901-26.516 10.983l-29.384 29.384c-7.083 7.083-10.983 16.5-10.983 26.517v28.377c-10.221 2.119-17.927 11.192-17.927 22.031v154.985c0 12.406 10.093 22.5 22.5 22.5h240.823v86.45c0 9.649 7.851 17.5 17.5 17.5h138.334c9.649 0 17.5-7.851 17.5-17.5v-32.5c0-4.143-3.357-7.5-7.5-7.5s-7.5 3.357-7.5 7.5v32.5c0 1.379-1.121 2.5-2.5 2.5h-138.333c-1.379 0-2.5-1.121-2.5-2.5v-108.496c0-1.379 1.121-2.5 2.5-2.5h138.334c1.379 0 2.5 1.121 2.5 2.5v40.996c0 4.143 3.357 7.5 7.5 7.5s7.5-3.357 7.5-7.5v-40.996c0-9.649-7.851-17.5-17.5-17.5h-104.311v-24.725h24.212c6.87 0 12.702-4.497 14.729-10.698h48.693l51.727 24.089c2.297 1.071 4.853 1.637 7.39 1.637h22.842c6.893 0 12.5-5.607 12.5-12.5v-125.742c0-6.892-5.608-12.5-12.5-12.5zm-287.008 104.117h-15.301v-89.116h35.5v68.917c0 11.137-9.061 20.199-20.199 20.199zm44.38-116.042v11.926h-27.317v-11.926c0-.275.224-.5.5-.5h26.317c.276 0 .5.224.5.5zm-20.272-15.5v-17.096h13.227v17.096zm-10.068-59.413h28.026c.276 0 .5.225.5.5v26.317c0 .275-.224.5-.5.5h-28.026zm-114.081 35.272c2.031 4.163 6.294 7.045 11.229 7.045h33.85c4.142 0 7.5-3.357 7.5-7.5s-3.358-7.5-7.5-7.5h-31.35v-27.317h85.352v27.317h-19.002c-4.142 0-7.5 3.357-7.5 7.5s3.358 7.5 7.5 7.5h29.07v19.622c-4.235 2.77-7.045 7.547-7.045 12.974v11.926h-138.341v-22.431c0-2.003.78-3.887 2.197-5.303l21.636-21.637c1.416-1.416 3.299-2.196 5.303-2.196zm-57.874 7.748 29.384-29.384c0-.001 0-.001 0-.001 4.249-4.249 9.899-6.59 15.909-6.59h11.31v13.227h-5.831c-6.011 0-11.661 2.341-15.91 6.59l-21.636 21.636c-4.25 4.25-6.59 9.9-6.59 15.91v22.431h-13.226v-27.909c0-6.011 2.34-11.661 6.59-15.91zm-24.517 66.318c0-.517.053-1.022.153-1.51.701-3.415 3.729-5.99 7.347-5.99h144.631v89.116h-152.131zm0 154.986v-58.369h20.595v65.869h-13.095c-4.135 0-7.5-3.364-7.5-7.5zm284.847-17.047h-19.023c-9.649 0-17.5 7.851-17.5 17.5v7.047h-55.729v-21.051c0-4.143-3.358-7.5-7.5-7.5s-7.5 3.357-7.5 7.5v21.051h-142v-65.869h142v9.818c0 4.143 3.358 7.5 7.5 7.5s7.5-3.357 7.5-7.5v-11.32c14.469-4.372 25.036-17.821 25.036-33.697v-68.917h59.716c4.136 0 7.5 3.364 7.5 7.5zm39.712-40.225c0 .275-.225.5-.5.5h-24.212v-90.687h24.212c.275 0 .5.225.5.5zm58.083-10.198h-43.083v-13.145h43.083zm0-28.144h-43.083v-13h43.083zm0-28h-43.083v-13.146h43.083zm84.298 81.87h-20.342c-.362 0-.728-.08-1.056-.233l-47.9-22.307v-75.661l47.902-22.308c.326-.152.691-.232 1.054-.232h20.342z"/></g></g></svg>