<?xml version="1.0" encoding="UTF-8"?><svg id="Layer_1" xmlns="http://www.w3.org/2000/svg" viewBox="0 0 924.3 274.74"><defs><style>.cls-1{fill:#fff;}.cls-2{isolation:isolate;}</style></defs><g class="cls-2"><path class="cls-1" d="m420.79,128.21c-8.64-4.84-15.48-11.56-20.54-20.14-5.06-8.58-7.58-18.3-7.58-29.15s2.53-20.41,7.58-28.99c5.06-8.58,11.9-15.3,20.54-20.14,8.63-4.84,18.11-7.27,28.44-7.27s19.93,2.42,28.52,7.27c8.58,4.85,15.38,11.56,20.38,20.14,5,8.59,7.5,18.25,7.5,28.99s-2.5,20.57-7.5,29.15c-5,8.59-11.83,15.3-20.46,20.14-8.64,4.85-18.12,7.27-28.44,7.27s-19.8-2.42-28.44-7.27Zm45.97-16.98c5.06-3,9.01-7.29,11.85-12.88,2.84-5.58,4.27-12.06,4.27-19.43s-1.42-13.82-4.27-19.35c-2.84-5.53-6.79-9.77-11.85-12.72-5.06-2.95-10.9-4.42-17.54-4.42s-12.51,1.48-17.62,4.42c-5.11,2.95-9.08,7.19-11.93,12.72-2.84,5.53-4.27,11.98-4.27,19.35s1.42,13.85,4.27,19.43c2.84,5.58,6.82,9.87,11.93,12.88,5.11,3,10.98,4.5,17.62,4.5s12.48-1.5,17.54-4.5Z"/><path class="cls-1" d="m595.84,55.45c6.42,6.58,9.64,15.77,9.64,27.57v51.35h-22.12v-48.34c0-6.95-1.74-12.3-5.21-16.04-3.48-3.74-8.21-5.61-14.22-5.61s-10.93,1.87-14.46,5.61c-3.53,3.74-5.29,9.08-5.29,16.04v48.34h-22.12V46.84h22.12v10.9c2.95-3.79,6.71-6.77,11.3-8.93,4.58-2.16,9.61-3.24,15.09-3.24,10.43,0,18.85,3.29,25.28,9.87Z"/><path class="cls-1" d="m707.22,97.24h-63.99c.53,6.32,2.74,11.27,6.64,14.85,3.9,3.58,8.69,5.37,14.38,5.37,8.21,0,14.06-3.53,17.54-10.59h23.86c-2.53,8.43-7.37,15.35-14.54,20.78-7.16,5.43-15.96,8.14-26.38,8.14-8.43,0-15.98-1.87-22.67-5.61-6.69-3.74-11.9-9.03-15.64-15.88-3.74-6.85-5.61-14.74-5.61-23.7s1.84-17.01,5.53-23.86c3.69-6.85,8.85-12.11,15.48-15.8,6.64-3.69,14.27-5.53,22.91-5.53s15.77,1.79,22.36,5.37c6.58,3.58,11.69,8.66,15.33,15.25,3.63,6.58,5.45,14.14,5.45,22.67,0,3.16-.21,6-.63,8.53Zm-22.28-14.85c-.11-5.69-2.16-10.24-6.16-13.67-4-3.42-8.9-5.13-14.69-5.13-5.48,0-10.09,1.66-13.82,4.98-3.74,3.32-6.03,7.93-6.87,13.82h41.55Z"/></g><g class="cls-2"><path class="cls-1" d="m467.16,158.28c8.79,4.53,15.59,10.98,20.38,19.35,4.79,8.37,7.19,18.09,7.19,29.15s-2.4,20.72-7.19,28.99c-4.79,8.27-11.59,14.67-20.38,19.2-8.79,4.53-18.98,6.79-30.57,6.79h-38.55v-110.28h38.55c11.58,0,21.78,2.27,30.57,6.79Zm-4.5,75.2c6.32-6.32,9.48-15.22,9.48-26.7s-3.16-20.46-9.48-26.94c-6.32-6.48-15.27-9.72-26.86-9.72h-15.64v72.83h15.64c11.58,0,20.54-3.16,26.86-9.48Z"/><path class="cls-1" d="m544.57,176.92c4.58-2.63,9.82-3.95,15.72-3.95v23.23h-5.85c-6.95,0-12.19,1.63-15.72,4.9-3.53,3.27-5.29,8.95-5.29,17.06v43.61h-22.12v-87.53h22.12v13.59c2.84-4.63,6.56-8.27,11.14-10.9Z"/><path class="cls-1" d="m655.87,224.63h-63.99c.53,6.32,2.74,11.27,6.64,14.85,3.9,3.58,8.69,5.37,14.38,5.37,8.21,0,14.06-3.53,17.54-10.59h23.86c-2.53,8.43-7.37,15.35-14.54,20.78-7.16,5.43-15.96,8.14-26.38,8.14-8.43,0-15.98-1.87-22.67-5.61-6.69-3.74-11.9-9.03-15.64-15.88-3.74-6.85-5.61-14.75-5.61-23.7s1.84-17.01,5.53-23.86c3.69-6.85,8.85-12.11,15.48-15.8,6.64-3.69,14.27-5.53,22.91-5.53s15.77,1.79,22.36,5.37c6.58,3.58,11.69,8.66,15.33,15.25,3.63,6.58,5.45,14.14,5.45,22.67,0,3.16-.21,6-.63,8.53Zm-22.28-14.85c-.11-5.69-2.16-10.24-6.16-13.67-4-3.42-8.9-5.13-14.69-5.13-5.48,0-10.09,1.66-13.82,4.98-3.74,3.32-6.03,7.93-6.87,13.82h41.55Z"/><path class="cls-1" d="m672.22,194.14c3.53-6.85,8.32-12.11,14.38-15.8,6.05-3.69,12.82-5.53,20.3-5.53,6.53,0,12.24,1.32,17.14,3.95,4.9,2.63,8.82,5.95,11.77,9.95v-12.48h22.28v87.53h-22.28v-12.8c-2.84,4.11-6.77,7.5-11.77,10.19-5,2.69-10.77,4.03-17.3,4.03-7.37,0-14.09-1.9-20.14-5.69-6.06-3.79-10.85-9.14-14.38-16.04-3.53-6.9-5.29-14.82-5.29-23.78s1.76-16.69,5.29-23.54Zm60.43,10.03c-2.11-3.84-4.95-6.79-8.53-8.85-3.58-2.05-7.43-3.08-11.53-3.08s-7.9,1-11.38,3c-3.48,2-6.29,4.92-8.45,8.77-2.16,3.85-3.24,8.4-3.24,13.67s1.08,9.87,3.24,13.82c2.16,3.95,5,6.98,8.53,9.08,3.53,2.11,7.29,3.16,11.3,3.16s7.95-1.03,11.53-3.08c3.58-2.05,6.42-5,8.53-8.85,2.11-3.84,3.16-8.45,3.16-13.82s-1.05-9.98-3.16-13.82Z"/><path class="cls-1" d="m914.42,182.84c6.58,6.58,9.87,15.77,9.87,27.57v51.35h-22.12v-48.34c0-6.85-1.74-12.09-5.21-15.72s-8.22-5.45-14.22-5.45-10.77,1.82-14.3,5.45c-3.53,3.63-5.29,8.87-5.29,15.72v48.34h-22.12v-48.34c0-6.85-1.74-12.09-5.21-15.72-3.48-3.63-8.21-5.45-14.22-5.45s-10.93,1.82-14.46,5.45c-3.53,3.63-5.29,8.87-5.29,15.72v48.34h-22.12v-87.53h22.12v10.59c2.84-3.69,6.5-6.58,10.98-8.69,4.48-2.11,9.4-3.16,14.77-3.16,6.85,0,12.96,1.45,18.33,4.34,5.37,2.9,9.53,7.03,12.48,12.4,2.84-5.06,6.98-9.11,12.4-12.17,5.42-3.05,11.3-4.58,17.62-4.58,10.74,0,19.41,3.29,25.99,9.87Z"/></g><path class="cls-1" d="m311.36,56.74C292.26,21.74,255.56-.02,215.7,0h-57C149.12,0,141.37,7.76,141.37,17.33h0v22.05c0,9.57-7.76,17.34-17.33,17.36h-15C48.84,56.72.02,105.51,0,165.7s48.77,109.02,108.96,109.04h53.63c9.57,0,17.33-7.76,17.33-17.33h0v-22.01c-.02-9.59,7.73-17.38,17.32-17.4,0,0,.01,0,.02,0h18.43c60.2,0,109-48.8,109-109,0-18.26-4.59-36.24-13.34-52.26Zm-93.84,98.69c-.6,0-12-.65-13.57-.65-8.26.02-16.42,1.72-24,5-14.88,6.42-21.34,17.8-33.76,33.92-1.42,1.96-3.02,3.77-4.79,5.42-18.43,17.86-47.85,17.39-65.71-1.04-17.86-18.43-17.39-47.85,1.04-65.71,8.22-7.96,19.08-12.61,30.51-13.06,1,.14,9.26.59,14.2.59,21.05,0,40.57-10.99,51.47-29v-.06c1.27-2.11,6.42-10.8,7-11.51,16.37-19.77,45.67-22.53,65.44-6.15,19.77,16.37,22.53,45.67,6.15,65.44-8.43,10.18-20.79,16.28-33.99,16.8h0Z"/></svg>