<?xml version="1.0" encoding="utf-8"?>
<!-- Generator: Adobe Illustrator 27.2.0, SVG Export Plug-In . SVG Version: 6.00 Build 0)  -->
<svg version="1.1" id="Layer_1" xmlns="http://www.w3.org/2000/svg" xmlns:xlink="http://www.w3.org/1999/xlink" x="0px" y="0px"
	 viewBox="0 0 934.4 274.7" style="enable-background:new 0 0 934.4 274.7;" xml:space="preserve">
<style type="text/css">
	.st0{enable-background:new    ;}
	.st1{fill:#0D113A;}
</style>
<g class="st0">
	<path class="st1" d="M420.8,128.2c-8.6-4.8-15.5-11.6-20.5-20.1c-5.1-8.6-7.6-18.3-7.6-29.1c0-10.7,2.5-20.4,7.6-29
		c5.1-8.6,11.9-15.3,20.5-20.1c8.6-4.8,18.1-7.3,28.4-7.3c10.4,0,19.9,2.4,28.5,7.3c8.6,4.8,15.4,11.6,20.4,20.1
		c5,8.6,7.5,18.2,7.5,29c0,10.8-2.5,20.6-7.5,29.1c-5,8.6-11.8,15.3-20.5,20.1c-8.6,4.8-18.1,7.3-28.4,7.3
		C438.9,135.5,429.4,133.1,420.8,128.2z M466.7,111.2c5.1-3,9-7.3,11.8-12.9c2.8-5.6,4.3-12.1,4.3-19.4c0-7.4-1.4-13.8-4.3-19.4
		c-2.8-5.5-6.8-9.8-11.8-12.7c-5.1-2.9-10.9-4.4-17.5-4.4s-12.5,1.5-17.6,4.4c-5.1,2.9-9.1,7.2-11.9,12.7c-2.8,5.5-4.3,12-4.3,19.4
		c0,7.4,1.4,13.9,4.3,19.4c2.8,5.6,6.8,9.9,11.9,12.9c5.1,3,11,4.5,17.6,4.5S461.7,114.2,466.7,111.2z"/>
	<path class="st1" d="M595.8,55.5c6.4,6.6,9.6,15.8,9.6,27.6v51.3h-22.1V86c0-7-1.7-12.3-5.2-16c-3.5-3.7-8.2-5.6-14.2-5.6
		c-6.1,0-10.9,1.9-14.5,5.6c-3.5,3.7-5.3,9.1-5.3,16v48.3H522V46.8h22.1v10.9c2.9-3.8,6.7-6.8,11.3-8.9c4.6-2.2,9.6-3.2,15.1-3.2
		C581,45.6,589.4,48.9,595.8,55.5z"/>
	<path class="st1" d="M707.2,97.2h-64c0.5,6.3,2.7,11.3,6.6,14.9c3.9,3.6,8.7,5.4,14.4,5.4c8.2,0,14.1-3.5,17.5-10.6h23.9
		c-2.5,8.4-7.4,15.4-14.5,20.8c-7.2,5.4-16,8.1-26.4,8.1c-8.4,0-16-1.9-22.7-5.6c-6.7-3.7-11.9-9-15.6-15.9
		c-3.7-6.8-5.6-14.7-5.6-23.7c0-9.1,1.8-17,5.5-23.9c3.7-6.8,8.8-12.1,15.5-15.8c6.6-3.7,14.3-5.5,22.9-5.5c8.3,0,15.8,1.8,22.4,5.4
		c6.6,3.6,11.7,8.7,15.3,15.2c3.6,6.6,5.5,14.1,5.5,22.7C707.8,91.9,707.6,94.7,707.2,97.2z M684.9,82.4c-0.1-5.7-2.2-10.2-6.2-13.7
		c-4-3.4-8.9-5.1-14.7-5.1c-5.5,0-10.1,1.7-13.8,5c-3.7,3.3-6,7.9-6.9,13.8H684.9z"/>
</g>
<g class="st0">
	<path class="st1" d="M467.1,158.3c8.8,4.5,15.6,11,20.4,19.4c4.8,8.4,7.2,18.1,7.2,29.1s-2.4,20.7-7.2,29
		c-4.8,8.3-11.6,14.7-20.4,19.2c-8.8,4.5-19,6.8-30.6,6.8H398V151.5h38.5C448.1,151.5,458.3,153.7,467.1,158.3z M462.6,233.5
		c6.3-6.3,9.5-15.2,9.5-26.7c0-11.5-3.2-20.5-9.5-26.9c-6.3-6.5-15.3-9.7-26.9-9.7h-15.6V243h15.6
		C447.3,243,456.3,239.8,462.6,233.5z"/>
	<path class="st1" d="M544.5,176.9c4.6-2.6,9.8-3.9,15.7-3.9v23.2h-5.8c-7,0-12.2,1.6-15.7,4.9c-3.5,3.3-5.3,9-5.3,17.1v43.6h-22.1
		v-87.5h22.1v13.6C536.2,183.2,540,179.6,544.5,176.9z"/>
	<path class="st1" d="M655.8,224.6h-64c0.5,6.3,2.7,11.3,6.6,14.9c3.9,3.6,8.7,5.4,14.4,5.4c8.2,0,14.1-3.5,17.5-10.6h23.9
		c-2.5,8.4-7.4,15.4-14.5,20.8c-7.2,5.4-16,8.1-26.4,8.1c-8.4,0-16-1.9-22.7-5.6c-6.7-3.7-11.9-9-15.6-15.9
		c-3.7-6.8-5.6-14.7-5.6-23.7c0-9.1,1.8-17,5.5-23.9c3.7-6.8,8.8-12.1,15.5-15.8c6.6-3.7,14.3-5.5,22.9-5.5c8.3,0,15.8,1.8,22.4,5.4
		c6.6,3.6,11.7,8.7,15.3,15.2c3.6,6.6,5.5,14.1,5.5,22.7C656.5,219.3,656.3,222.1,655.8,224.6z M633.6,209.8
		c-0.1-5.7-2.2-10.2-6.2-13.7c-4-3.4-8.9-5.1-14.7-5.1c-5.5,0-10.1,1.7-13.8,5c-3.7,3.3-6,7.9-6.9,13.8H633.6z"/>
	<path class="st1" d="M672.2,194.1c3.5-6.8,8.3-12.1,14.4-15.8c6.1-3.7,12.8-5.5,20.3-5.5c6.5,0,12.2,1.3,17.1,3.9
		c4.9,2.6,8.8,6,11.8,10v-12.5h22.3v87.5h-22.3V249c-2.8,4.1-6.8,7.5-11.8,10.2c-5,2.7-10.8,4-17.3,4c-7.4,0-14.1-1.9-20.1-5.7
		c-6.1-3.8-10.8-9.1-14.4-16c-3.5-6.9-5.3-14.8-5.3-23.8C666.9,208.8,668.7,201,672.2,194.1z M732.6,204.2c-2.1-3.8-5-6.8-8.5-8.8
		c-3.6-2.1-7.4-3.1-11.5-3.1c-4.1,0-7.9,1-11.4,3c-3.5,2-6.3,4.9-8.5,8.8c-2.2,3.8-3.2,8.4-3.2,13.7c0,5.3,1.1,9.9,3.2,13.8
		c2.2,4,5,7,8.5,9.1c3.5,2.1,7.3,3.2,11.3,3.2c4.1,0,8-1,11.5-3.1c3.6-2.1,6.4-5,8.5-8.8c2.1-3.8,3.2-8.5,3.2-13.8
		C735.8,212.6,734.7,208,732.6,204.2z"/>
	<path class="st1" d="M914.4,182.8c6.6,6.6,9.9,15.8,9.9,27.6v51.3h-22.1v-48.3c0-6.8-1.7-12.1-5.2-15.7s-8.2-5.5-14.2-5.5
		c-6,0-10.8,1.8-14.3,5.5c-3.5,3.6-5.3,8.9-5.3,15.7v48.3H841v-48.3c0-6.8-1.7-12.1-5.2-15.7c-3.5-3.6-8.2-5.5-14.2-5.5
		c-6.1,0-10.9,1.8-14.5,5.5c-3.5,3.6-5.3,8.9-5.3,15.7v48.3h-22.1v-87.5h22.1v10.6c2.8-3.7,6.5-6.6,11-8.7c4.5-2.1,9.4-3.2,14.8-3.2
		c6.8,0,13,1.4,18.3,4.3c5.4,2.9,9.5,7,12.5,12.4c2.8-5.1,7-9.1,12.4-12.2c5.4-3.1,11.3-4.6,17.6-4.6
		C899.1,173,907.8,176.3,914.4,182.8z"/>
</g>
<path class="st1" d="M311.3,56.7C292.2,21.7,255.5,0,215.7,0h-57c-9.6,0-17.3,7.8-17.3,17.3l0,0v22.1c0,9.6-7.8,17.3-17.3,17.4h-15
	c-60.2,0-109,48.8-109,109s48.8,109,109,109c0,0,0,0,0.1,0h53.6c9.6,0,17.3-7.8,17.3-17.3c0,0,0,0,0,0v-22c0-9.6,7.7-17.4,17.3-17.4
	c0,0,0,0,0,0h18.4c60.2,0,109-48.8,109-109C324.7,90.7,320.1,72.8,311.3,56.7z M217.5,155.4c-0.6,0-12-0.6-13.6-0.6
	c-8.3,0-16.4,1.7-24,5c-14.9,6.4-21.3,17.8-33.8,33.9c-1.4,2-3,3.8-4.8,5.4c-18.4,17.9-47.9,17.4-65.7-1s-17.4-47.9,1-65.7
	c8.2-8,19.1-12.6,30.5-13.1c1,0.1,9.3,0.6,14.2,0.6c21,0,40.6-11,51.5-29v-0.1c1.3-2.1,6.4-10.8,7-11.5
	c16.4-19.8,45.7-22.5,65.4-6.2s22.5,45.7,6.2,65.4C243,148.8,230.7,154.9,217.5,155.4L217.5,155.4z"/>
</svg>
