<svg xmlns="http://www.w3.org/2000/svg" viewBox="0 0 534.01 451.88"><defs><style>.cls-1{fill:#fff;}</style></defs><g id="Layer_2" data-name="Layer 2"><g id="Layer_1-2" data-name="Layer 1"><path class="cls-1" d="M512.07,93.33A179.14,179.14,0,0,0,354.73,0H261a28.51,28.51,0,0,0-28.51,28.51V64.77a28.56,28.56,0,0,1-28.56,28.56H179.26a179.28,179.28,0,1,0,0,358.55h88.08a28.51,28.51,0,0,0,28.51-28.51V387.11a28.56,28.56,0,0,1,28.56-28.56h30.32A179.28,179.28,0,0,0,512.07,93.33ZM357.72,255.65c-1,0-19.77-1.07-22.33-1.07a99.83,99.83,0,0,0-39.54,8.22c-24.48,10.54-35.09,29.27-55.52,55.79a62.12,62.12,0,0,1-7.89,8.91,76.43,76.43,0,1,1-56.18-131.27c1.7.22,15.24,1,23.35,1a98.45,98.45,0,0,0,32.83-5.58,99.44,99.44,0,0,0,51.84-42.08.41.41,0,0,1,.05-.11c2.09-3.46,10.56-17.76,11.52-18.91a76.45,76.45,0,1,1,61.87,125.14Z"/></g></g></svg>